<?xml version="1.0" encoding="UTF-8" standalone="no"?><!DOCTYPE svg PUBLIC "-//W3C//DTD SVG 1.1//EN" "http://www.w3.org/Graphics/SVG/1.1/DTD/svg11.dtd"><svg width="100%" height="100%" viewBox="0 0 1000 500" version="1.1" xmlns="http://www.w3.org/2000/svg" xmlns:xlink="http://www.w3.org/1999/xlink" xml:space="preserve" xmlns:serif="http://www.serif.com/" style="fill-rule:evenodd;clip-rule:evenodd;stroke-linejoin:round;stroke-miterlimit:1.41421;"><rect x="0.34" y="0.336" width="999.32" height="499.328" style="fill:#fff;"/><g><path d="M836.044,171.681l0,1.251c0,14.582 8.907,24.693 26.725,30.319l6.522,0.624c12.599,0 22.378,-6.67 29.332,-20.002l2.606,-11.571c0,-15.206 -8.365,-25.733 -25.098,-31.564l-8.472,-1.254c-11.299,0 -20.751,6.149 -28.356,18.443c-2.171,5 -3.259,9.586 -3.259,13.754m33.247,-62.205c25.638,0 45.082,12.192 58.339,36.576c3.69,7.711 5.538,16.456 5.538,26.25c0,28.132 -14.88,47.826 -44.649,59.08c-6.952,1.667 -13.906,2.498 -20.86,2.498c-27.379,0 -47.26,-13.124 -59.641,-39.382c-2.613,-6.67 -3.915,-13.234 -3.915,-19.692l0,-6.88c0,-20.63 10.972,-37.612 32.917,-50.945c9.781,-5.004 20.537,-7.505 32.271,-7.505m-166.878,2.815l89.958,0l1.302,1.565l0,27.19l-1.302,1.565l-29.009,0l0,87.52l-0.977,1.251l-30.311,0l-1.306,-1.251l0,-87.52l-28.355,0l-1.301,-1.565l0,-27.19l1.301,-1.565Zm-62.25,-2.815c23.033,0 38.783,11.673 47.258,35.009l0,1.875l-29.658,6.564c-3.259,-9.585 -8.693,-14.375 -16.3,-14.375l-1.3,0c-8.473,0 -14.126,4.062 -16.947,12.188c37.807,12.919 59.21,20.838 64.205,23.753l0.653,14.695c0,19.587 -10.428,33.655 -31.288,42.197c-5.868,1.667 -12.063,2.498 -18.576,2.498c-22.819,0 -38.464,-11.773 -46.939,-35.32l0,-0.935l29.662,-6.251c4.127,8.955 10.428,13.437 18.901,13.437l1.629,0c9.346,-1.663 14.017,-6.04 14.017,-13.128l-64.209,-23.757l0,-0.308l-0.323,-10.005c0,-21.879 10.975,-37.197 32.917,-45.944c6.519,-1.46 11.953,-2.193 16.298,-2.193m-114.077,0c22.165,0 37.703,10.94 46.608,32.822l0.977,4.062l-29.656,6.564c-3.912,-9.585 -9.237,-14.375 -15.97,-14.375l-3.26,0c-9.558,1.456 -14.34,5.523 -14.34,12.188l62.903,23.131l0.323,10.005l0,6.25c0,21.043 -12.276,35.317 -36.83,42.821l-13.032,0.936c-20.642,0 -35.53,-10.208 -44.654,-30.629l-2.279,-5.626l30.311,-6.251c4.346,8.955 9.991,13.437 16.945,13.437l3.585,0c9.124,-1.663 13.69,-6.04 13.69,-13.128l-62.577,-23.129l-1.954,-1.564l0,-11.564c0,-18.548 9.561,-32.403 28.681,-41.57c6.299,-2.92 13.142,-4.38 20.529,-4.38m-147.313,2.815c1.082,0 10.428,24.903 28.028,74.705l0.324,0c17.385,-49.802 26.402,-74.705 27.055,-74.705l32.915,0l0.979,1.565l-45.956,117.526l-30.964,0c-0.647,0 -15.968,-39.386 -45.955,-118.154l0.329,-0.937l33.245,0Zm-57.364,-22.195l0,163.791l642.07,0l0,-163.791l-46.932,0l0,14.065l-0.977,1.252l-27.051,0l-0.977,-1.252l0,-14.065l-39.441,0l0,14.065l-1.3,1.252l-26.726,0l-1.631,-1.252l0,-14.065l-497.035,0Zm498.666,-55.322l26.726,0l1.3,0.938l0,18.442l39.441,0l0,-18.442l0.977,-0.938l27.051,0l0.977,0.938l0,18.442l82.132,0l0.981,1.56l0,232.555l-0.981,0.938l-712.471,0l-0.976,-0.938l0,-232.555l0.976,-1.56l532.236,0l0,-18.442l1.631,-0.938Z" style="fill:#b0182b;fill-rule:nonzero;"/><path d="M192.512,221.026c-12.103,-16.891 -25.903,-31.526 -40.832,-47.775c-0.952,-1.047 -1.864,-2.059 -2.812,-3.1c2.927,-1.37 5.868,-2.663 8.863,-3.813c12.82,-5.439 24.238,-11.753 36.101,-17.376c3.694,-1.61 7.443,-3.125 11.241,-4.562c2.452,8.097 3.782,16.669 3.782,25.547c0,19.015 -6.065,36.635 -16.343,51.079m-134.364,12.157c20.058,-16.113 38.021,-31.685 60.158,-46.168c4.262,3.811 8.576,7.519 12.943,11.233c10.597,9.02 21.329,18.269 30.728,29.878c4.063,4.583 9.272,7.48 14.071,10.455c-15.272,12.401 -34.736,19.858 -55.919,19.858c-24.1,0 -45.976,-9.65 -61.981,-25.256m-12.001,-18.162c-0.445,0.519 -0.922,1.016 -1.421,1.496c-8.434,-13.54 -13.323,-29.493 -13.323,-46.57c0,-18.836 5.946,-36.3 16.044,-50.662c0.215,0.614 0.435,1.22 0.589,1.865c4.33,20.58 28.619,23.716 41.14,38.262c1.63,1.955 3.644,3.591 5.781,5.267c-5.153,4.275 -10.153,8.773 -15.281,13.272c-6.275,5.324 -12.391,10.976 -19.056,16.409c-6.948,5.931 -10.253,14.101 -14.473,20.661m11.309,17.503c-0.244,-0.244 -0.478,-0.501 -0.723,-0.751c0.349,-0.046 0.678,-0.124 1.047,-0.13c-0.08,0.329 -0.193,0.618 -0.324,0.881m128.038,-122.343c-0.778,0.407 -1.554,0.811 -2.338,1.234c-9.775,5.154 -18.721,12.636 -29.014,16.05c-5.12,1.79 -9.551,5.418 -15.162,8.443c-5.078,2.03 -9.794,4.537 -14.356,7.233c-0.384,-0.435 -0.782,-0.871 -1.16,-1.306c-15.97,-18.094 -35.485,-28.366 -51.588,-46.096c13.9,-9.023 30.469,-14.284 48.253,-14.284c25.844,0 49.135,11.081 65.365,28.726m84.406,-8.081c-6.102,-5.433 -10.374,-5.747 -15.507,-5.045c-2.573,0.354 -5.369,0.961 -8.773,1.331c-3.355,0.532 -7.312,0.846 -12.311,0.484c6.648,0.064 5.209,2.975 0.423,5.209c-2.398,1.121 -5.647,2.078 -9.221,2.456c-2.152,0.22 -4.38,0.3 -6.609,0.121c-20.824,-31.886 -56.861,-53.029 -97.773,-53.029c-25.605,0 -49.296,8.294 -68.551,22.299c-6.952,-4.66 -14.588,-8.831 -19.477,-11.693c-14.789,-1.963 -17.751,15.611 -17.741,16.717c-0.528,12.291 4.934,13.488 11.674,20.378c-14.15,19.255 -22.535,42.975 -22.535,68.619c0,24.901 7.915,47.979 21.328,66.924c-0.786,1.303 -1.528,2.619 -2.232,3.934c0.932,-1.183 1.784,-2.304 2.612,-3.405c0.449,0.629 0.881,1.271 1.345,1.889c-0.867,1.715 -1.509,3.649 -2.382,5.607c-0.314,1.581 -2.975,-1.174 -3.135,-0.388c-2.353,3.768 -1.056,9.544 -3.708,10.837c-1.856,1.136 -3.585,2.111 -5.279,3.059c-0.957,0.713 -1.879,1.44 -2.612,2.442c-0.279,0.782 -0.568,1.585 -0.858,2.392c-2.113,5.753 -4.944,11.974 -7.726,17.575l0.31,0.166c2.059,-2.901 4.626,-5.254 8.798,-6.451c-1.684,0.624 -2.347,-0.224 -1.312,-1.729l2.343,0.236c-1.29,3.074 -2.561,6.123 -6.614,6.533c0,0 -0.244,1.569 -0.369,2.353c-1.06,0.391 -1.934,-0.429 -2.846,-0.942c-0.408,0.563 -0.788,1.156 -1.162,1.758c2.419,0.145 7.338,-1.7 7.338,-1.7c5.802,-6.749 11.465,-12.935 17.411,-18.565c-0.121,-0.967 -0.444,-1.875 0.458,-2.189c0.926,-0.01 1.675,-0.189 2.312,-0.464l2.593,-2.466c0.209,-0.365 0.423,-0.739 0.641,-1.117l0.012,-0.039c0.142,-0.788 -0.419,-1.047 -1.113,-1.137c-0.608,0.059 -1.246,0.043 -1.858,-0.041c0.388,0.055 1.185,-0.039 1.858,0.041c0.739,-0.076 1.447,-0.271 2.105,-0.653c0.578,-0.957 1.256,-1.885 2.223,-2.587c-0.573,1.265 -1.341,2.082 -2.223,2.587c-0.339,0.616 -0.668,1.221 -1.004,1.829c-0.044,0.22 -0.093,0.429 -0.144,0.657c1.995,-1.864 3.958,-3.734 5.991,-5.531c0.057,-0.076 0.092,-0.131 0.146,-0.205c21.188,21.638 50.73,35.105 83.383,35.105c27.926,0 53.582,-9.851 73.683,-26.232c1.95,1.848 3.958,3.522 6.042,5.103c-1.883,-2.097 -3.589,-3.867 -5.334,-5.677c0.803,-0.668 1.581,-1.36 2.363,-2.045c-0.174,0.903 -0.234,1.7 0.339,1.911c1.501,2.193 4.39,3.183 6.833,5.014c1.386,0.563 -1.883,2.55 -1.195,2.831c2.825,2.776 8.703,2.641 9.106,5.373c0.519,1.928 0.912,3.704 1.287,5.433c0.372,1.008 0.776,1.988 1.489,2.866c0.647,0.423 1.281,0.883 1.915,1.345c4.511,3.345 9.31,7.556 13.346,11.788l0.271,-0.228c-1.909,-2.717 -3.051,-5.723 -2.778,-9.825c0.006,1.706 -1.01,2.058 -2.047,0.707l1.018,-2.064c2.405,2.022 4.842,4.082 3.702,7.876c0,0 1.351,0.71 2.023,1.057c-0.029,1.076 -1.111,1.6 -1.918,2.249c0.363,0.536 0.762,1.061 1.181,1.574c1.047,-2.079 1.145,-7.097 1.145,-7.097c-4.131,-7.343 -8.019,-14.247 -11.822,-21.006c-0.948,-0.107 -1.895,-0.003 -1.934,-0.92c0.249,-0.873 0.259,-1.602 0.164,-2.259l-1.689,-2.94l-0.902,-0.833l-0.035,-0.021c-0.714,-0.292 -1.102,0.191 -1.361,0.823c-0.099,0.588 -0.279,1.183 -0.513,1.741c0.148,-0.355 0.263,-1.117 0.513,-1.741c0.115,-0.706 0.111,-1.416 -0.09,-2.114c-0.762,-0.731 -1.464,-1.555 -1.889,-2.606c1.051,0.784 1.636,1.677 1.889,2.606c0.503,0.445 0.993,0.878 1.486,1.312l0.587,0.27c-1.295,-2.239 -2.496,-4.533 -3.818,-6.75c-0.423,-0.429 -0.816,-0.848 -1.185,-1.15c-1.491,-1.248 -2.965,-2.468 -2.103,-4.482l-0.698,-1.207c-0.045,0.141 -0.08,0.271 -0.131,0.42c-0.019,-0.234 -0.019,-0.449 0,-0.632c-0.189,-0.335 -0.398,-0.653 -0.593,-0.983c17.601,-20.378 28.276,-46.858 28.276,-75.802c0,-10.902 -1.54,-21.443 -4.365,-31.458c0.115,-0.003 0.224,-0.019 0.337,-0.029c5.455,-0.427 12.622,-2.427 19.511,-5.084c3.429,-1.371 6.892,-2.628 10.093,-3.749c3.189,-1.162 6.106,-2.219 8.468,-3.074c11.14,-10.048 0.115,-23.796 -0.896,-24.453" style="fill:#b0182b;fill-rule:nonzero;"/><path d="M625.524,463.471c4.082,0 7.23,-0.992 9.445,-2.975c2.211,-1.985 3.32,-4.815 3.32,-8.494c0,-2.936 -0.788,-5.322 -2.359,-7.174c-1.571,-1.852 -3.938,-3.324 -7.104,-4.414l-1.608,-0.544c-1.895,-0.672 -3.41,-1.399 -4.541,-2.189c-1.132,-0.782 -1.955,-1.733 -2.474,-2.844c-0.516,-1.114 -0.776,-2.472 -0.776,-4.083c0,-2.762 0.833,-4.87 2.502,-6.324c1.67,-1.456 4.168,-2.183 7.501,-2.183c2.513,0 4.929,0.362 7.249,1.089l0,-2.411c-0.96,-0.33 -2.096,-0.583 -3.41,-0.764c-1.312,-0.184 -2.583,-0.273 -3.807,-0.273c-4.104,0 -7.239,0.967 -9.419,2.901c-2.171,1.939 -3.257,4.651 -3.257,8.141c0,2.854 0.75,5.182 2.267,6.981c1.515,1.803 3.798,3.24 6.843,4.318l1.639,0.542c1.975,0.692 3.547,1.441 4.716,2.242c1.168,0.807 2.018,1.78 2.558,2.917c0.538,1.14 0.807,2.557 0.807,4.242c0,2.971 -0.842,5.203 -2.517,6.7c-1.68,1.493 -4.156,2.242 -7.433,2.242c-2.687,0 -5.492,-0.509 -8.422,-1.524l0,2.415c1.322,0.48 2.708,0.844 4.152,1.094c1.451,0.249 2.821,0.372 4.128,0.372m29.008,-0.519l0,-40.134l12.766,0l0,-2.412l-28.087,0l0,2.412l12.758,0l0,40.134l2.563,0Zm30.385,0.519c3.03,0 5.496,-0.532 7.406,-1.595c1.903,-1.066 3.305,-2.686 4.198,-4.873c0.887,-2.184 1.335,-4.985 1.335,-8.395l0,-28.202l-2.472,0l0,28.547c0,4.18 -0.828,7.25 -2.474,9.213c-1.647,1.965 -4.312,2.948 -7.993,2.948c-3.7,0 -6.371,-0.983 -8.02,-2.948c-1.649,-1.963 -2.472,-5.033 -2.472,-9.213l0,-28.547l-2.558,0l0,28.202c0,3.41 0.454,6.205 1.367,8.379c0.904,2.178 2.322,3.803 4.236,4.874c1.918,1.072 4.4,1.61 7.447,1.61m29.323,-0.201c4.162,0 7.626,-0.741 10.393,-2.226c2.77,-1.486 4.864,-3.823 6.285,-7.003c1.415,-3.181 2.127,-7.303 2.127,-12.362c0,-7.377 -1.484,-12.835 -4.457,-16.374c-2.975,-3.534 -7.476,-5.302 -13.51,-5.302c-2.458,0 -5.215,0.259 -8.281,0.778l0,42.058c3.025,0.287 5.509,0.431 7.443,0.431m0.234,-2.386c-1.844,0 -3.548,-0.084 -5.12,-0.259l0,-37.836c2.145,-0.285 4.053,-0.429 5.724,-0.429c3.523,0 6.41,0.668 8.652,2c2.242,1.33 3.907,3.412 4.999,6.25c1.097,2.837 1.639,6.529 1.639,11.069c0,4.601 -0.579,8.309 -1.739,11.124c-1.156,2.819 -2.901,4.87 -5.234,6.153c-2.326,1.287 -5.303,1.928 -8.921,1.928m28.4,-18.6l16.503,0l0,-2.388l-16.503,0l0,-17.107l19.121,0l0,-2.383l-21.649,0l0,42.546l21.932,0l0,-2.386l-19.404,0l0,-18.282Zm49.506,16.327l-21.762,-38.205l-2.761,0l0,42.546l2.447,0l0,-38.204l21.762,38.204l2.761,0l0,-42.546l-2.447,0l0,38.205Zm22.567,4.341l0,-40.134l12.766,0l0,-2.412l-28.087,0l0,2.412l12.766,0l0,40.134l2.555,0Zm34.618,0l-21.677,0l0,2.274l21.677,0l0,-2.274Zm9.685,-42.546l-2.558,0l0,42.546l2.558,0l0,-42.546Zm33.664,38.205l-21.762,-38.205l-2.761,0l0,42.546l2.441,0l0,-38.204l21.768,38.204l2.755,0l0,-42.546l-2.441,0l0,38.205Zm36.113,0l-21.768,-38.205l-2.755,0l0,42.546l2.439,0l0,-38.204l21.764,38.204l2.763,0l0,-42.546l-2.443,0l0,38.205Zm14.108,-16.327l16.505,0l0,-2.388l-16.505,0l0,-17.107l19.121,0l0,-2.383l-21.647,0l0,42.546l21.936,0l0,-2.386l-19.41,0l0,-18.282Zm49.51,16.327l-21.766,-38.205l-2.757,0l0,42.546l2.443,0l0,-38.204l21.76,38.204l2.763,0l0,-42.546l-2.443,0l0,38.205Z" style="fill:#b0182b;fill-rule:nonzero;"/><path d="M398.093,403.213l-13.025,-40.308l-2.731,0l13.915,42.55l3.625,0l13.882,-42.55l-2.558,0l-13.108,40.308Zm22.996,-18.426l16.505,0l0,-2.389l-16.505,0l0,-17.107l19.121,0l0,-2.386l-21.647,0l0,42.55l21.932,0l0,-2.386l-19.406,0l0,-18.282Zm51.81,20.668l-13.545,-19.006c3.377,-0.664 5.913,-2.002 7.621,-4.006c1.706,-2.004 2.538,-4.634 2.499,-7.895c0,-4.003 -1.193,-7.013 -3.579,-9.027c-2.388,-2.007 -5.991,-3.015 -10.822,-3.015c-1.63,0 -3.154,0.064 -4.57,0.2c-1.421,0.133 -2.897,0.324 -4.431,0.574l0,42.175l2.533,0l0,-18.629c1.493,0.099 3.125,0.144 4.885,0.144c1.035,0 2.127,-0.045 3.277,-0.144l13.224,18.629l2.908,0Zm-19.551,-20.758c-1.266,0 -2.845,-0.055 -4.743,-0.17l0,-19.206c2.109,-0.341 4.246,-0.517 6.41,-0.517c4.216,0 7.259,0.797 9.139,2.386c1.879,1.591 2.821,4.063 2.821,7.418c0,3.468 -1.09,6.016 -3.264,7.646c-2.177,1.63 -5.632,2.443 -10.363,2.443m41.425,-1.263c2.663,-0.613 4.593,-1.813 5.778,-3.591c1.191,-1.786 1.784,-3.903 1.784,-6.356c0,-2.532 -0.509,-4.601 -1.525,-6.211c-1.017,-1.61 -2.587,-2.805 -4.715,-3.593c-2.129,-0.784 -4.874,-1.177 -8.249,-1.177c-3.259,0 -6.345,0.274 -9.256,0.832l0,41.973c2.682,0.308 5.478,0.46 8.393,0.46c5.766,0 9.967,-0.959 12.605,-2.872c2.638,-1.92 3.954,-4.821 3.954,-8.712c0,-2.875 -0.729,-5.248 -2.184,-7.118c-1.456,-1.869 -3.653,-3.08 -6.585,-3.635m-6.927,-18.63c2.911,0 5.239,0.298 6.974,0.893c1.733,0.593 2.99,1.524 3.776,2.786c0.789,1.265 1.183,2.955 1.183,5.063c0,1.953 -0.364,3.579 -1.082,4.87c-0.717,1.296 -1.924,2.288 -3.618,2.976c-1.702,0.693 -3.993,1.038 -6.89,1.038l-7.073,0l0,-17.109c1.995,-0.341 4.237,-0.517 6.73,-0.517m-0.604,38.637c-2.437,0 -4.476,-0.093 -6.126,-0.288l0,-18.398l8.225,0c3.987,0 6.923,0.79 8.812,2.359c1.883,1.57 2.833,3.948 2.833,7.126c0,2.15 -0.46,3.895 -1.367,5.234c-0.912,1.343 -2.366,2.338 -4.372,2.991c-2.003,0.653 -4.67,0.976 -8.005,0.976m50.512,2.014l-14.031,-42.55l-3.365,0l-14.03,42.55l2.618,0l4.829,-14.832l16.448,0l4.829,14.832l2.702,0Zm-15.756,-40.078l7.447,22.858l-14.892,0l7.445,-22.858Zm45.538,35.739l-21.762,-38.211l-2.763,0l0,42.55l2.443,0l0,-38.208l21.766,38.208l2.757,0l0,-42.55l-2.441,0l0,38.211Zm19.029,4.655c4.163,0 7.627,-0.743 10.397,-2.228c2.766,-1.486 4.86,-3.819 6.281,-6.999c1.416,-3.18 2.129,-7.303 2.129,-12.362c0,-7.381 -1.485,-12.839 -4.454,-16.372c-2.973,-3.54 -7.477,-5.304 -13.514,-5.304c-2.459,0 -5.215,0.259 -8.28,0.774l0,42.062c3.028,0.283 5.507,0.429 7.441,0.429m0.234,-2.382c-1.844,0 -3.548,-0.092 -5.119,-0.261l0,-37.837c2.15,-0.288 4.053,-0.428 5.724,-0.428c3.524,0 6.41,0.664 8.652,2c2.243,1.329 3.908,3.413 5,6.25c1.096,2.836 1.64,6.523 1.64,11.069c0,4.603 -0.577,8.309 -1.739,11.126c-1.158,2.817 -2.901,4.87 -5.231,6.151c-2.332,1.286 -5.306,1.93 -8.927,1.93m43.868,2.585c4.082,0 7.233,-0.993 9.445,-2.975c2.215,-1.985 3.321,-4.815 3.321,-8.498c0,-2.932 -0.788,-5.324 -2.357,-7.172c-1.57,-1.85 -3.938,-3.322 -7.099,-4.412l-1.61,-0.548c-1.899,-0.669 -3.415,-1.396 -4.546,-2.185c-1.131,-0.786 -1.954,-1.733 -2.472,-2.843c-0.519,-1.113 -0.778,-2.474 -0.778,-4.084c0,-2.76 0.838,-4.87 2.503,-6.324c1.669,-1.456 4.172,-2.184 7.506,-2.184c2.507,0 4.926,0.363 7.242,1.092l0,-2.417c-0.955,-0.324 -2.092,-0.579 -3.404,-0.764c-1.316,-0.18 -2.587,-0.267 -3.813,-0.267c-4.098,0 -7.236,0.966 -9.414,2.898c-2.174,1.94 -3.262,4.652 -3.262,8.136c0,2.856 0.759,5.189 2.27,6.989c1.514,1.803 3.797,3.24 6.842,4.31l1.642,0.548c1.971,0.688 3.542,1.435 4.712,2.244c1.168,0.801 2.025,1.774 2.558,2.914c0.538,1.143 0.809,2.558 0.809,4.242c0,2.973 -0.844,5.204 -2.519,6.701c-1.673,1.493 -4.151,2.242 -7.43,2.242c-2.682,0 -5.493,-0.509 -8.425,-1.525l0,2.418c1.321,0.477 2.707,0.842 4.158,1.091c1.444,0.25 2.821,0.373 4.121,0.373m31.567,0c4.579,0 8.094,-1.71 10.537,-5.133c2.442,-3.42 3.669,-8.972 3.669,-16.659c0,-7.685 -1.227,-13.239 -3.669,-16.662c-2.443,-3.418 -5.958,-5.127 -10.537,-5.127c-4.56,0 -8.069,1.709 -10.524,5.127c-2.452,3.423 -3.677,8.977 -3.677,16.662c0,7.687 1.225,13.239 3.677,16.659c2.455,3.423 5.964,5.133 10.524,5.133m0,-2.357c-2.453,0 -4.521,-0.605 -6.212,-1.815c-1.684,-1.207 -2.99,-3.244 -3.922,-6.12c-0.926,-2.877 -1.394,-6.749 -1.394,-11.613c0,-4.796 0.468,-8.613 1.394,-11.459c0.932,-2.846 2.238,-4.87 3.922,-6.067c1.691,-1.197 3.759,-1.794 6.212,-1.794c2.452,0 4.524,0.603 6.209,1.81c1.686,1.204 2.996,3.248 3.924,6.125c0.932,2.87 1.396,6.743 1.396,11.613c0,4.79 -0.464,8.609 -1.396,11.456c-0.928,2.846 -2.238,4.867 -3.924,6.064c-1.685,1.201 -3.757,1.8 -6.209,1.8m41.575,-39.242l0,-1.47l-23.921,0l0,2.357l20.611,0l-20.899,38.727l0,1.466l24.491,0l0,-2.357l-21.187,0l20.905,-38.723Zm8.968,-1.47l-2.558,0l0,42.544l2.558,0l0,-42.544Zm36.683,42.55l-14.03,-42.55l-3.365,0l-14.027,42.55l2.613,0l4.828,-14.832l16.45,0l4.829,14.832l2.702,0Zm-15.756,-40.078l7.448,22.858l-14.893,0l7.445,-22.858Zm42.178,40.078l0,-2.417l-18.6,0l0,-40.133l-2.564,0l0,42.55l21.164,0Zm7.241,-42.55l-2.558,0l0,42.544l2.558,0l0,-42.544Zm15.18,43.069c4.081,0 7.231,-0.993 9.444,-2.975c2.212,-1.985 3.318,-4.815 3.318,-8.498c0,-2.932 -0.786,-5.324 -2.357,-7.172c-1.569,-1.85 -3.936,-3.322 -7.096,-4.412l-1.611,-0.548c-1.898,-0.669 -3.413,-1.396 -4.544,-2.185c-1.133,-0.786 -1.955,-1.733 -2.474,-2.843c-0.518,-1.113 -0.776,-2.474 -0.776,-4.084c0,-2.76 0.835,-4.87 2.501,-6.324c1.669,-1.456 4.17,-2.184 7.506,-2.184c2.509,0 4.925,0.363 7.242,1.092l0,-2.417c-0.957,-0.324 -2.093,-0.579 -3.403,-0.764c-1.318,-0.18 -2.587,-0.267 -3.814,-0.267c-4.096,0 -7.238,0.966 -9.416,2.898c-2.171,1.94 -3.259,4.652 -3.259,8.136c0,2.856 0.758,5.189 2.267,6.989c1.517,1.803 3.8,3.24 6.845,4.31l1.639,0.548c1.975,0.688 3.544,1.435 4.716,2.244c1.166,0.801 2.024,1.774 2.556,2.914c0.54,1.143 0.807,2.558 0.807,4.242c0,2.973 -0.836,5.204 -2.517,6.701c-1.674,1.493 -4.152,2.242 -7.431,2.242c-2.681,0 -5.494,-0.509 -8.422,-1.525l0,2.418c1.32,0.477 2.706,0.842 4.154,1.091c1.449,0.25 2.823,0.373 4.125,0.373m29.007,-0.519l0,-40.134l12.765,0l0,-2.416l-28.086,0l0,2.416l12.765,0l0,40.134l2.556,0Zm20.123,-42.55l-2.558,0l0,42.544l2.558,0l0,-42.544Zm15.183,43.069c4.082,0 7.226,-0.993 9.445,-2.975c2.213,-1.985 3.32,-4.815 3.32,-8.498c0,-2.932 -0.79,-5.324 -2.359,-7.172c-1.575,-1.85 -3.938,-3.322 -7.102,-4.412l-1.61,-0.548c-1.901,-0.669 -3.41,-1.396 -4.541,-2.185c-1.132,-0.786 -1.955,-1.733 -2.474,-2.843c-0.516,-1.113 -0.775,-2.474 -0.775,-4.084c0,-2.76 0.832,-4.87 2.501,-6.324c1.667,-1.456 4.168,-2.184 7.501,-2.184c2.513,0 4.925,0.363 7.249,1.092l0,-2.417c-0.963,-0.324 -2.096,-0.579 -3.41,-0.764c-1.31,-0.18 -2.583,-0.267 -3.809,-0.267c-4.102,0 -7.241,0.966 -9.416,2.898c-2.172,1.94 -3.264,4.652 -3.264,8.136c0,2.856 0.758,5.189 2.273,6.989c1.515,1.803 3.794,3.24 6.843,4.31l1.64,0.548c1.974,0.688 3.544,1.435 4.712,2.244c1.171,0.801 2.021,1.774 2.561,2.914c0.532,1.143 0.803,2.558 0.803,4.242c0,2.973 -0.838,5.204 -2.513,6.701c-1.68,1.493 -4.156,2.242 -7.431,2.242c-2.686,0 -5.494,-0.509 -8.424,-1.525l0,2.418c1.322,0.477 2.706,0.842 4.153,1.091c1.444,0.25 2.821,0.373 4.127,0.373m33.114,0c2.686,0 5.359,-0.478 8.024,-1.439l0,-2.413c-1.493,0.518 -2.868,0.896 -4.125,1.134c-1.255,0.242 -2.546,0.361 -3.868,0.361c-2.877,0 -5.263,-0.589 -7.172,-1.768c-1.909,-1.178 -3.375,-3.198 -4.396,-6.054c-1.028,-2.856 -1.542,-6.749 -1.542,-11.671c0,-4.831 0.511,-8.664 1.526,-11.498c1.012,-2.839 2.488,-4.863 4.426,-6.067c1.934,-1.207 4.398,-1.81 7.386,-1.81c1.382,0 2.689,0.088 3.915,0.27c1.226,0.183 2.507,0.493 3.85,0.937l0,-2.442c-2.571,-0.749 -5.108,-1.121 -7.62,-1.121c-3.523,0 -6.473,0.711 -8.841,2.136c-2.363,1.431 -4.178,3.749 -5.434,6.96c-1.257,3.209 -1.879,7.461 -1.879,12.75c0,5.328 0.622,9.593 1.879,12.794c1.256,3.199 3.041,5.492 5.348,6.868c2.31,1.381 5.154,2.073 8.523,2.073m15.697,-0.519l0,-20.639l21.104,0l0,20.639l2.532,0l0,-42.55l-2.532,0l0,19.464l-21.104,0l0,-19.464l-2.557,0l0,42.55l2.557,0Zm35.304,-20.668l16.503,0l0,-2.389l-16.503,0l0,-17.107l19.121,0l0,-2.386l-21.649,0l0,42.55l21.935,0l0,-2.386l-19.407,0l0,-18.282Zm51.808,20.668l-13.543,-19.006c3.375,-0.664 5.911,-2.002 7.621,-4.006c1.704,-2.004 2.536,-4.634 2.497,-7.895c0,-4.003 -1.191,-7.013 -3.577,-9.027c-2.385,-2.007 -5.993,-3.015 -10.822,-3.015c-1.63,0 -3.154,0.064 -4.572,0.2c-1.419,0.133 -2.895,0.324 -4.431,0.574l0,42.175l2.534,0l0,-18.629c1.494,0.099 3.124,0.144 4.882,0.144c1.039,0 2.129,-0.045 3.281,-0.144l13.224,18.629l2.906,0Zm-19.549,-20.758c-1.266,0 -2.847,-0.055 -4.744,-0.17l0,-19.206c2.108,-0.341 4.245,-0.517 6.408,-0.517c4.217,0 7.262,0.797 9.142,2.386c1.879,1.591 2.821,4.063 2.821,7.418c0,3.468 -1.092,6.016 -3.264,7.646c-2.175,1.63 -5.634,2.443 -10.363,2.443" style="fill:#b0182b;fill-rule:nonzero;"/></g></svg>